<mxfile host="Electron" modified="2024-03-31T11:00:29.491Z" agent="Mozilla/5.0 (Windows NT 10.0; Win64; x64) AppleWebKit/537.36 (KHTML, like Gecko) draw.io/22.1.18 Chrome/120.0.6099.199 Electron/28.1.2 Safari/537.36" etag="IxBm4gVV1UqHYOH7YQDM" version="22.1.18" type="device">
  <diagram name="Page-1" id="1el9CAp_a6bwECfp_wey">
    <mxGraphModel dx="1195" dy="737" grid="1" gridSize="10" guides="1" tooltips="1" connect="1" arrows="1" fold="1" page="1" pageScale="1" pageWidth="827" pageHeight="1169" math="0" shadow="0">
      <root>
        <mxCell id="0" />
        <mxCell id="1" parent="0" />
        <mxCell id="-YNiPsiU5b7-qOP7EQcr-1" value="Vstupní páska" style="rounded=0;whiteSpace=wrap;html=1;fillColor=#dae8fc;strokeColor=#6c8ebf;" vertex="1" parent="1">
          <mxGeometry width="560" height="40" as="geometry" />
        </mxCell>
        <mxCell id="-YNiPsiU5b7-qOP7EQcr-2" value="Z&lt;br&gt;á&lt;br&gt;s&lt;br&gt;o&lt;br&gt;b&lt;br&gt;n&lt;br&gt;í&lt;br&gt;k" style="rounded=0;whiteSpace=wrap;html=1;fillColor=#dae8fc;strokeColor=#6c8ebf;" vertex="1" parent="1">
          <mxGeometry x="520" y="50" width="40" height="270" as="geometry" />
        </mxCell>
        <mxCell id="-YNiPsiU5b7-qOP7EQcr-4" value="Řídící&lt;br&gt;jednotka" style="rounded=0;whiteSpace=wrap;html=1;fillColor=#dae8fc;strokeColor=#6c8ebf;" vertex="1" parent="1">
          <mxGeometry y="50" width="160" height="50" as="geometry" />
        </mxCell>
        <mxCell id="-YNiPsiU5b7-qOP7EQcr-5" value="" style="rounded=0;whiteSpace=wrap;html=1;fillColor=#d5e8d4;strokeColor=#82b366;" vertex="1" parent="1">
          <mxGeometry y="260" width="160" height="60" as="geometry" />
        </mxCell>
        <mxCell id="-YNiPsiU5b7-qOP7EQcr-7" value="Tlačítka" style="text;html=1;strokeColor=none;fillColor=none;align=center;verticalAlign=middle;whiteSpace=wrap;rounded=0;" vertex="1" parent="1">
          <mxGeometry x="40" y="260" width="80" height="30" as="geometry" />
        </mxCell>
        <mxCell id="-YNiPsiU5b7-qOP7EQcr-8" value="Nastavení rychlosti" style="text;html=1;strokeColor=none;fillColor=none;align=center;verticalAlign=middle;whiteSpace=wrap;rounded=0;" vertex="1" parent="1">
          <mxGeometry x="25" y="290" width="110" height="30" as="geometry" />
        </mxCell>
        <mxCell id="-YNiPsiU5b7-qOP7EQcr-9" value="Nový vstup" style="rounded=0;whiteSpace=wrap;html=1;fillColor=#f8cecc;strokeColor=#b85450;" vertex="1" parent="1">
          <mxGeometry y="210" width="160" height="40" as="geometry" />
        </mxCell>
        <mxCell id="-YNiPsiU5b7-qOP7EQcr-10" value="Ukončit simulátor" style="rounded=0;whiteSpace=wrap;html=1;fillColor=#f8cecc;strokeColor=#b85450;" vertex="1" parent="1">
          <mxGeometry y="160" width="160" height="40" as="geometry" />
        </mxCell>
      </root>
    </mxGraphModel>
  </diagram>
</mxfile>
